<mxfile host="app.diagrams.net" modified="2023-10-22T06:46:03.537Z" agent="Mozilla/5.0 (Windows NT 10.0; Win64; x64) AppleWebKit/537.36 (KHTML, like Gecko) Chrome/117.0.0.0 Safari/537.36 OPR/103.0.0.0 (Edition Yx 05)" etag="okLrqBSqbk0Cd7dnmgqr" version="22.0.6" type="github">
  <diagram id="C5RBs43oDa-KdzZeNtuy" name="Page-1">
    <mxGraphModel dx="1149" dy="469" grid="1" gridSize="10" guides="1" tooltips="1" connect="1" arrows="1" fold="1" page="1" pageScale="1" pageWidth="827" pageHeight="1169" math="0" shadow="0">
      <root>
        <mxCell id="WIyWlLk6GJQsqaUBKTNV-0" />
        <mxCell id="WIyWlLk6GJQsqaUBKTNV-1" parent="WIyWlLk6GJQsqaUBKTNV-0" />
        <mxCell id="ZypxY2kKc_XwFsVwjLok-0" style="edgeStyle=orthogonalEdgeStyle;rounded=0;orthogonalLoop=1;jettySize=auto;html=1;exitX=0.5;exitY=1;exitDx=0;exitDy=0;entryX=0.5;entryY=0;entryDx=0;entryDy=0;" edge="1" parent="WIyWlLk6GJQsqaUBKTNV-1" source="ZypxY2kKc_XwFsVwjLok-1" target="ZypxY2kKc_XwFsVwjLok-6">
          <mxGeometry relative="1" as="geometry" />
        </mxCell>
        <mxCell id="ZypxY2kKc_XwFsVwjLok-1" value="Старт" style="rounded=1;whiteSpace=wrap;html=1;fontSize=12;glass=0;strokeWidth=1;shadow=0;" vertex="1" parent="WIyWlLk6GJQsqaUBKTNV-1">
          <mxGeometry x="130" y="103" width="190" height="40" as="geometry" />
        </mxCell>
        <mxCell id="ZypxY2kKc_XwFsVwjLok-2" value="Yes" style="edgeStyle=orthogonalEdgeStyle;rounded=0;html=1;jettySize=auto;orthogonalLoop=1;fontSize=11;endArrow=block;endFill=0;endSize=8;strokeWidth=1;shadow=0;labelBackgroundColor=none;entryX=0;entryY=0.5;entryDx=0;entryDy=0;" edge="1" parent="WIyWlLk6GJQsqaUBKTNV-1" source="ZypxY2kKc_XwFsVwjLok-4" target="ZypxY2kKc_XwFsVwjLok-8">
          <mxGeometry y="10" relative="1" as="geometry">
            <mxPoint as="offset" />
            <mxPoint x="410" y="333" as="targetPoint" />
          </mxGeometry>
        </mxCell>
        <mxCell id="ZypxY2kKc_XwFsVwjLok-3" style="edgeStyle=orthogonalEdgeStyle;rounded=0;orthogonalLoop=1;jettySize=auto;html=1;exitX=0.537;exitY=0.973;exitDx=0;exitDy=0;exitPerimeter=0;" edge="1" parent="WIyWlLk6GJQsqaUBKTNV-1" source="ZypxY2kKc_XwFsVwjLok-4">
          <mxGeometry relative="1" as="geometry">
            <mxPoint x="120" y="333" as="targetPoint" />
            <mxPoint x="240" y="383" as="sourcePoint" />
            <Array as="points">
              <mxPoint x="220" y="383" />
              <mxPoint x="220" y="403" />
              <mxPoint x="96" y="403" />
              <mxPoint x="96" y="333" />
            </Array>
          </mxGeometry>
        </mxCell>
        <mxCell id="ZypxY2kKc_XwFsVwjLok-4" value="&lt;font style=&quot;font-size: 10px;&quot;&gt;String [] symbol - &lt;br&gt;выборка нужных (&amp;lt;=3)&lt;br&gt;&amp;nbsp;элементов массива&lt;/font&gt;" style="rhombus;whiteSpace=wrap;html=1;shadow=0;fontFamily=Helvetica;fontSize=12;align=center;strokeWidth=1;spacing=6;spacingTop=-4;" vertex="1" parent="WIyWlLk6GJQsqaUBKTNV-1">
          <mxGeometry x="120" y="279" width="200" height="107" as="geometry" />
        </mxCell>
        <mxCell id="ZypxY2kKc_XwFsVwjLok-5" style="edgeStyle=orthogonalEdgeStyle;rounded=0;orthogonalLoop=1;jettySize=auto;html=1;exitX=0.5;exitY=1;exitDx=0;exitDy=0;entryX=0.5;entryY=0;entryDx=0;entryDy=0;" edge="1" parent="WIyWlLk6GJQsqaUBKTNV-1" source="ZypxY2kKc_XwFsVwjLok-6" target="ZypxY2kKc_XwFsVwjLok-4">
          <mxGeometry relative="1" as="geometry" />
        </mxCell>
        <mxCell id="ZypxY2kKc_XwFsVwjLok-6" value="&lt;font style=&quot;font-size: 10px;&quot;&gt;Void array метод по заданию массива путем ввода с клавиатуры&lt;/font&gt;" style="shape=parallelogram;perimeter=parallelogramPerimeter;whiteSpace=wrap;html=1;fixedSize=1;" vertex="1" parent="WIyWlLk6GJQsqaUBKTNV-1">
          <mxGeometry x="120" y="176" width="200" height="60" as="geometry" />
        </mxCell>
        <mxCell id="ZypxY2kKc_XwFsVwjLok-7" style="edgeStyle=orthogonalEdgeStyle;rounded=0;orthogonalLoop=1;jettySize=auto;html=1;exitX=0.5;exitY=1;exitDx=0;exitDy=0;entryX=0.5;entryY=0;entryDx=0;entryDy=0;" edge="1" parent="WIyWlLk6GJQsqaUBKTNV-1" source="ZypxY2kKc_XwFsVwjLok-8" target="ZypxY2kKc_XwFsVwjLok-9">
          <mxGeometry relative="1" as="geometry" />
        </mxCell>
        <mxCell id="ZypxY2kKc_XwFsVwjLok-8" value="&lt;font style=&quot;font-size: 10px;&quot;&gt;Символы передаются из выборки &lt;br&gt;и создается новый&lt;span style=&quot;white-space: pre;&quot;&gt;&#x9;&lt;/span&gt; массив и &lt;br&gt;его вывод на экран&lt;/font&gt;" style="shape=parallelogram;perimeter=parallelogramPerimeter;whiteSpace=wrap;html=1;fixedSize=1;" vertex="1" parent="WIyWlLk6GJQsqaUBKTNV-1">
          <mxGeometry x="413" y="302.5" width="200" height="60" as="geometry" />
        </mxCell>
        <mxCell id="ZypxY2kKc_XwFsVwjLok-9" value="Стоп" style="rounded=1;whiteSpace=wrap;html=1;fontSize=12;glass=0;strokeWidth=1;shadow=0;" vertex="1" parent="WIyWlLk6GJQsqaUBKTNV-1">
          <mxGeometry x="452" y="436.5" width="120" height="40" as="geometry" />
        </mxCell>
        <mxCell id="ZypxY2kKc_XwFsVwjLok-10" value="No" style="text;html=1;strokeColor=none;fillColor=none;align=center;verticalAlign=middle;whiteSpace=wrap;rounded=0;" vertex="1" parent="WIyWlLk6GJQsqaUBKTNV-1">
          <mxGeometry x="130" y="398" width="60" height="30" as="geometry" />
        </mxCell>
      </root>
    </mxGraphModel>
  </diagram>
</mxfile>
